<svg width="512" height="512" viewBox="0 0 512 512" fill="none" xmlns="http://www.w3.org/2000/svg">
<rect width="512" height="512" rx="32" fill="#EE671F" style="fill:#EE671F;fill:color(display-p3 0.9321 0.4043 0.1198);fill-opacity:1;"/>
<path d="M114.055 311V198.577H142.366V241.779H215.187V198.577H243.498V311H215.187V265.671H142.366V311H114.055ZM268.635 311V198.577H294.654L354.875 255.034C356.075 256.016 357.548 257.434 359.293 259.289C361.148 261.143 363.057 263.107 365.021 265.18C366.985 267.143 368.676 268.889 370.094 270.416H371.567C371.458 268.234 371.294 265.507 371.076 262.234C370.967 258.961 370.912 256.234 370.912 254.052V198.577H397.913V311H372.385L312.655 254.543C309.818 251.925 306.873 249.034 303.818 245.87C300.764 242.706 298.309 240.142 296.454 238.178H295.145C295.254 239.597 295.363 241.997 295.472 245.379C295.581 248.761 295.636 252.579 295.636 256.834V311H268.635Z" fill="#EBE7E5" style="fill:#EBE7E5;fill:color(display-p3 0.9216 0.9059 0.8980);fill-opacity:1;"/>
</svg>
